<svg width="35" height="35" viewBox="0 0 35 35" fill="none" xmlns="http://www.w3.org/2000/svg">
<path d="M17.4998 0C7.83492 0 0 7.83492 0 17.4998C0 27.1648 7.83492 35 17.4998 35C27.1648 35 35 27.1648 35 17.4998C34.9891 7.83941 27.1606 0.0108947 17.4998 0ZM17.4998 33.2498C8.80135 33.2498 1.74989 26.1983 1.74989 17.4998C1.74989 8.80135 8.80135 1.74989 17.4998 1.74989C26.1983 1.74989 33.2498 8.80135 33.2498 17.4998C33.2399 26.1942 26.1942 33.2399 17.4998 33.2498Z" fill="#676767"/>
<path d="M15.451 10.7163C15.087 10.3981 14.5342 10.4352 14.216 10.7989C13.8982 11.1629 13.9353 11.7157 14.299 12.0339L20.5462 17.4998L14.2987 22.9661C13.9347 23.2843 13.8978 23.8371 14.2157 24.2008C14.5339 24.5648 15.0867 24.6019 15.4507 24.2837L22.4505 18.1587C22.6406 17.9927 22.7495 17.7523 22.7495 17.4998C22.7495 17.2473 22.6406 17.0073 22.4505 16.841L15.451 10.7163Z" fill="#676767"/>
</svg>
