<svg width="17" height="16" viewBox="0 0 17 16" fill="none" xmlns="http://www.w3.org/2000/svg">
<path d="M16.8447 6.04549C16.7335 5.70742 16.4302 5.46806 16.0727 5.43609L11.1974 4.99853L9.27067 0.539087C9.12841 0.211457 8.80473 0 8.44445 0C8.08418 0 7.76037 0.211457 7.61902 0.539087L5.69226 4.99853L0.816171 5.43609C0.45873 5.4687 0.156052 5.70805 0.0442071 6.04549C-0.0669938 6.38357 0.0357027 6.75438 0.306038 6.98877L3.99139 10.1834L2.90477 14.9147C2.82526 15.2626 2.96185 15.6223 3.25383 15.831C3.41077 15.9437 3.59516 16 3.7802 16C3.9392 16 4.09834 15.9582 4.24046 15.8741L8.44445 13.3891L12.6477 15.8741C12.956 16.0563 13.3437 16.0396 13.6351 15.831C13.9271 15.6223 14.0636 15.2626 13.9841 14.9147L12.8975 10.1834L16.5829 6.98877C16.8531 6.75438 16.9559 6.38433 16.8447 6.04549Z" fill="#F4C22F"/>
</svg>
