<svg width="28" height="27" viewBox="0 0 28 27" fill="none" xmlns="http://www.w3.org/2000/svg">
<path d="M6.48419 24.2362C6.48419 25.7631 7.72675 27.0057 9.25364 27.0057C10.7805 27.0057 12.0231 25.7631 12.0231 24.2362C12.0231 22.7094 10.7805 21.4668 9.25364 21.4668C7.72675 21.4668 6.48419 22.7094 6.48419 24.2362ZM10.1768 24.2362C10.1768 24.7449 9.76229 25.1594 9.25364 25.1594C8.74498 25.1594 8.33049 24.7449 8.33049 24.2362C8.33049 23.7276 8.74498 23.3131 9.25364 23.3131C9.76229 23.3131 10.1768 23.7276 10.1768 24.2362Z" fill="#F4C22F"/>
<path d="M23.1014 24.2362C23.1014 22.7094 21.8588 21.4668 20.3319 21.4668C18.8051 21.4668 17.5625 22.7094 17.5625 24.2362C17.5625 25.7631 18.8051 27.0057 20.3319 27.0057C21.8588 27.0057 23.1014 25.7631 23.1014 24.2362ZM19.4088 24.2362C19.4088 23.7276 19.8233 23.3131 20.3319 23.3131C20.8406 23.3131 21.2551 23.7276 21.2551 24.2362C21.2551 24.7449 20.8406 25.1594 20.3319 25.1594C19.8233 25.1594 19.4088 24.7449 19.4088 24.2362Z" fill="#F4C22F"/>
<path d="M3.80707 2.08067C3.92154 3.17091 5.19549 15.2715 5.39212 17.1409C5.54074 18.5542 6.72514 19.6205 8.14679 19.6205H22.5322C23.8292 19.6205 24.9684 18.6992 25.2407 17.4308L27.4581 7.08321C27.5754 6.53486 27.4406 5.97082 27.0879 5.53601C26.7353 5.10029 26.2119 4.85011 25.6515 4.85011H5.95524L5.55644 1.06152C5.50659 0.59071 5.11056 0.234375 4.6379 0.234375H1.86846C1.35888 0.234375 0.945312 0.647945 0.945312 1.15752C0.945312 1.6671 1.35888 2.08067 1.86846 2.08067H3.80707ZM25.6515 6.69641L23.435 17.044C23.3437 17.4668 22.9642 17.7742 22.5313 17.7742H8.14679C7.67229 17.7742 7.27811 17.4188 7.22826 16.948L6.1491 6.69641H25.6515Z" fill="#F4C22F"/>
</svg>
