<svg width="8" height="15" viewBox="0 0 8 15" fill="none" xmlns="http://www.w3.org/2000/svg">
<path d="M0.940948 14.811C0.757525 14.8156 0.577403 14.7556 0.425623 14.6393C0.273844 14.5231 0.157947 14.3563 0.0940481 14.1623C0.030149 13.9682 0.021422 13.7566 0.0690802 13.5568C0.116738 13.3569 0.218413 13.1788 0.35997 13.0472L5.76116 7.82738L0.35997 2.60942C0.262048 2.52823 0.180041 2.42516 0.119084 2.30656C0.0581275 2.18796 0.0195343 2.05641 0.00572114 1.92021C-0.00809202 1.784 0.00317275 1.64608 0.0388099 1.51502C0.074447 1.38395 0.133688 1.26256 0.212825 1.15852C0.291962 1.05448 0.389288 0.97009 0.49871 0.910448C0.608131 0.850806 0.727291 0.817307 0.848725 0.812022C0.97016 0.806736 1.09125 0.829716 1.20442 0.879669C1.31759 0.929624 1.4204 1.0054 1.50641 1.10225L7.69028 7.07087C7.78739 7.16435 7.86537 7.28039 7.91884 7.41117C7.97231 7.54194 8 7.68428 8 7.8283C8 7.97232 7.97231 8.11466 7.91884 8.24543C7.86537 8.37621 7.78739 8.49236 7.69028 8.58585L1.50641 14.5602C1.35019 14.7167 1.14983 14.8055 0.940948 14.811Z" fill="#F4C22F"/>
</svg>
