<svg width="19" height="18" viewBox="0 0 19 18" fill="none" xmlns="http://www.w3.org/2000/svg">
<path d="M18.9503 6.80118C18.8252 6.42084 18.484 6.15157 18.0818 6.1156L12.5971 5.62334L10.4295 0.606473C10.2695 0.237889 9.90532 0 9.50001 0C9.0947 0 8.73041 0.237889 8.57139 0.606473L6.4038 5.62334L0.918193 6.1156C0.516072 6.15229 0.175559 6.42156 0.049733 6.80118C-0.0753681 7.18151 0.0401656 7.59868 0.344293 7.86236L4.49031 11.4563L3.26786 16.779C3.17842 17.1704 3.33208 17.5751 3.66056 17.8098C3.83712 17.9367 4.04456 18 4.25272 18C4.43161 18 4.61063 17.953 4.77052 17.8584L9.50001 15.0628L14.2286 17.8584C14.5755 18.0633 15.0117 18.0446 15.3395 17.8098C15.6679 17.5751 15.8216 17.1704 15.7322 16.779L14.5097 11.4563L18.6557 7.86236C18.9597 7.59868 19.0754 7.18237 18.9503 6.80118Z" fill="#F4C22F"/>
</svg>
