<svg width="94" height="80" viewBox="0 0 94 80" fill="none" xmlns="http://www.w3.org/2000/svg">
<path d="M27.5213 17.5096C27.6639 17.544 27.7909 17.6253 27.8819 17.7404C27.9948 17.9153 28.0867 18.1029 28.1559 18.2993L31.5852 28.3167L31.6141 28.3961H32.173L33.399 24.1194L34.7549 28.3961H35.3391L38.3537 17.4591H39.3057V16.8389H36.1757V17.4591H36.2947C37.2466 17.4591 37.2466 17.8954 37.2466 18.0397C37.2466 18.2452 37.2466 18.3426 37.2466 18.375L35.2453 26.0341L33.8967 21.9738L35.184 17.4591H36.0206V16.8389H33.1322V17.4483H33.2404C33.4821 17.4547 33.7186 17.5203 33.9291 17.6394C33.9843 17.6875 34.0276 17.7476 34.0558 17.8152C34.0839 17.8827 34.0961 17.9558 34.0914 18.0288C34.0933 18.1845 34.0824 18.3401 34.0589 18.494L33.3774 20.7874L32.2415 17.4483H32.9844V16.8389H30.2222V17.4591H30.3412C30.5931 17.4532 30.8396 17.5331 31.0401 17.6858C31.2407 17.8385 31.3833 18.0548 31.4446 18.2993L32.887 22.7599L31.9494 26.0486L29.0646 17.4591H30.0743V16.8389H26.6847V17.4591H26.8037C27.0439 17.4532 27.2842 17.4701 27.5213 17.5096Z" fill="#623C21"/>
<path d="M43.2075 22.9412C42.6053 22.9214 42.0078 23.0528 41.4694 23.3234C41.0109 23.5367 40.632 23.8903 40.3876 24.3331C40.1533 24.731 40.0289 25.1839 40.027 25.6457C40.0259 26.0597 40.1314 26.4671 40.3336 26.8284C40.527 27.224 40.8308 27.555 41.2084 27.7816C41.5859 28.0081 42.0211 28.1204 42.4611 28.1049C43.0671 28.1007 43.6645 27.9615 44.21 27.6975V27.8814H46.1572V27.2539H46.0382C45.7948 27.2621 45.5516 27.2329 45.317 27.1674C45.2269 27.1421 45.1259 27.0808 45.1259 26.8573V22.3173C45.1159 21.9823 45.0163 21.656 44.8374 21.3726C44.6278 21.0401 44.3375 20.766 43.9936 20.5756C43.6489 20.3753 43.2564 20.2718 42.8577 20.2763C42.5082 20.2677 42.1599 20.3227 41.83 20.4386C41.5941 20.5195 41.3743 20.6416 41.181 20.7992L41.1557 20.8245C41.1052 20.8605 41.0584 20.9002 41.0151 20.9362L40.8672 21.0588V20.0239H40.2434V23.4136H40.8672V23.2946C40.8722 22.9208 40.9557 22.5522 41.1125 22.2128C41.2593 21.8472 41.4962 21.5247 41.8012 21.2752C42.0513 21.0434 42.3797 20.9146 42.7207 20.9146C42.9627 20.9187 43.1963 21.0037 43.3842 21.1562C43.6149 21.3393 43.7959 21.5774 43.9107 21.8486C44.0361 22.1238 44.1025 22.4223 44.1054 22.7248C44.1114 22.8233 44.1114 22.922 44.1054 23.0205L43.2075 22.9412ZM44.2028 26.8032C43.7713 27.1822 43.2192 27.3956 42.645 27.4054C42.422 27.4091 42.2004 27.3686 41.9931 27.2863C41.7858 27.204 41.5968 27.0814 41.437 26.9258C41.0737 26.5577 40.8691 26.0619 40.8672 25.5447C40.8557 25.182 40.9497 24.8237 41.1377 24.5134C41.3124 24.2336 41.5623 24.0086 41.8589 23.8643C42.1498 23.725 42.4668 23.6488 42.7892 23.6407C43.0639 23.6102 43.3417 23.6525 43.5949 23.7632C43.8481 23.874 44.0676 24.0494 44.2316 24.2718L44.2028 26.8032Z" fill="#623C21"/>
<path d="M48.3386 18.9214C48.3386 17.2338 48.7929 16.3972 49.7269 16.3972C50.176 16.4123 50.616 16.5281 51.0142 16.7362V18.6401H51.3316C51.3157 18.773 51.3073 18.9066 51.3063 19.0404V20.5513H50.513V21.3086H51.3063V27.2512H50.513V27.8787H53.2391V27.2512H53.1165C52.7559 27.2512 52.5432 27.1863 52.4674 27.0601C52.3721 26.8716 52.3262 26.6619 52.334 26.4507V21.3086H53.8954V20.5513H52.334V18.9214C52.334 17.2338 52.7884 16.3972 53.7187 16.3972C54.1679 16.4118 54.608 16.5276 55.0061 16.7362V16.9597L54.3714 17.7386L54.8113 18.1641L55.0205 17.955V18.6546H55.3522V27.2512H54.5589V27.8787H57.148V27.2512H57.0362C56.8592 27.2643 56.682 27.2281 56.5242 27.1467C56.4557 27.0962 56.3799 26.9519 56.3799 26.5805V16.3323L56.8379 15.7193L56.2069 15.5029L55.6299 16.2241V15.5246H55.0061V15.7662C54.7094 15.7165 54.409 15.6924 54.1082 15.694C53.6989 15.6719 53.2908 15.7539 52.9219 15.9323C52.5529 16.1108 52.2353 16.3799 51.9987 16.7145C51.8582 16.9304 51.7375 17.1585 51.6381 17.3961V15.5246H51.0178V15.7662C50.7199 15.7167 50.4183 15.6926 50.1163 15.694C49.7075 15.6711 49.2996 15.7528 48.9311 15.9314C48.5627 16.1099 48.2458 16.3795 48.0104 16.7145C47.5402 17.403 47.2968 18.2213 47.3145 19.0548V20.5513H46.5176V21.3086H47.3109V27.2512H46.5176V27.8787H49.2437V27.2512H49.1247C48.7641 27.2512 48.5477 27.1863 48.472 27.0601C48.3784 26.8709 48.3326 26.6617 48.3386 26.4507V21.3086H49.9V20.5513H48.3386V18.9214Z" fill="#623C21"/>
<path d="M59.1959 27.5527C59.7305 27.8483 60.3304 28.0057 60.9412 28.0106H61.172C62.0504 28.0011 62.9095 27.7517 63.6565 27.2894C64.3289 26.8007 64.8329 26.1152 65.0989 25.3278L65.1494 25.2124L64.5184 24.996L64.4787 25.1006C64.2343 25.7079 63.8119 26.227 63.2671 26.5899C62.7149 26.96 62.0816 27.1913 61.4208 27.2642C61.374 27.2668 61.3278 27.2766 61.2838 27.293C61.2696 27.2966 61.2547 27.2966 61.2405 27.293C60.7479 27.2797 60.269 27.1272 59.8594 26.8531C59.3808 26.5456 58.9816 26.1292 58.6947 25.6379C58.4117 25.1594 58.2612 24.6143 58.2584 24.0585C58.2721 23.6525 58.3614 23.2526 58.5216 22.8793H65.0376L64.9944 22.7279C64.876 22.3169 64.658 21.9416 64.3597 21.6352C64.0257 21.2633 63.618 20.9649 63.1625 20.759C62.6323 20.5294 62.0597 20.4139 61.4819 20.4202C60.9041 20.4264 60.3341 20.5541 59.8089 20.795C59.2029 21.0581 58.6659 21.458 58.2403 21.9634C57.7764 22.4962 57.4781 23.1529 57.3821 23.8529C57.3883 23.9514 57.3883 24.0502 57.3821 24.1486C57.3675 24.2574 57.3603 24.367 57.3605 24.4768C57.353 25.1247 57.5333 25.761 57.8797 26.3086C58.2068 26.8274 58.6595 27.2553 59.1959 27.5527ZM59.0841 22.104C59.6823 21.5586 60.4714 21.271 61.2802 21.3035C61.3642 21.329 61.4497 21.3495 61.5362 21.3648L61.868 21.4477C61.9509 21.473 62.0483 21.5018 62.1456 21.5379L62.4089 21.6136L62.6 21.6713C62.8849 21.8696 63.0832 22.0067 63.213 22.104H59.0841Z" fill="#623C21"/>
<path d="M34.1268 39.9724C33.4154 39.5387 32.5941 39.3196 31.7612 39.3413C30.7466 39.3562 29.7432 39.5567 28.8007 39.9327V39.3413H26.6119V39.9832H26.7273C27.0134 39.9593 27.2998 40.0262 27.5458 40.1743C27.6311 40.2727 27.6954 40.3873 27.7351 40.5113C27.7748 40.6352 27.7889 40.7659 27.7766 40.8955V49.8239H26.7417V50.4478H30.2323V49.8239H30.1133C30.032 49.8224 29.9509 49.8309 29.8717 49.8492C29.7996 49.8534 29.7274 49.8534 29.6553 49.8492C28.8909 49.8492 28.8007 49.521 28.8007 49.2722V48.2697C29.5084 48.5455 30.2536 48.7133 31.0112 48.7674C31.9836 48.7903 32.9429 48.5405 33.7806 48.0462C34.5199 47.5904 35.1227 46.9439 35.5259 46.1747C35.8974 45.4348 36.0924 44.619 36.0956 43.7911C36.0976 43.0356 35.9313 42.2891 35.6088 41.6059C35.2864 40.9273 34.7708 40.3591 34.1268 39.9724ZM31.242 48.0354C30.3333 48.0338 29.4616 47.6751 28.8152 47.0365V40.9388C29.0885 40.6464 29.4306 40.427 29.8104 40.3005C30.2694 40.1194 30.7594 40.0299 31.2528 40.0373C32.1506 40.0292 33.0235 40.3325 33.7229 40.8955C34.4441 41.4652 34.8696 42.3379 35.0066 43.5243C35.0066 43.5784 35.0066 43.7118 35.0463 43.8849C35.0542 44.0049 35.0542 44.1254 35.0463 44.2455C35.0434 44.9 34.8546 45.5403 34.5018 46.0917C34.145 46.6709 33.6492 47.1518 33.0594 47.4909C32.511 47.8385 31.8768 48.027 31.2276 48.0354H31.242Z" fill="#623C21"/>
<path d="M42.3595 49.735C42.2694 49.7061 42.1684 49.6448 42.1684 49.4248V44.9174C42.1566 44.5837 42.0571 44.2591 41.8799 43.9762C41.682 43.6509 41.4055 43.3806 41.0758 43.1901C40.7352 42.9894 40.346 42.8859 39.9507 42.8908C39.6013 42.8836 39.2533 42.9386 38.923 43.0531C38.6895 43.1346 38.4723 43.2567 38.2812 43.4137L38.0864 43.5723L37.971 43.6697V42.6348H37.3508V46.0064H37.971V45.891C37.9738 45.5173 38.0561 45.1485 38.2126 44.8092C38.3565 44.4448 38.5911 44.1233 38.8942 43.8752C39.1418 43.6442 39.4678 43.5153 39.8065 43.5146C40.0468 43.5185 40.279 43.6022 40.4664 43.7526C40.6948 43.935 40.8755 44.1701 40.9929 44.4378C41.1178 44.7119 41.1841 45.0091 41.1876 45.3104C41.1935 45.4089 41.1935 45.5076 41.1876 45.6061L40.3113 45.5232C39.7135 45.4995 39.1191 45.6234 38.5804 45.8838C38.1228 46.0985 37.7444 46.4517 37.4986 46.8934C37.2646 47.2875 37.1401 47.7369 37.1381 48.1952C37.1354 48.6051 37.2385 49.0087 37.4373 49.3671C37.6394 49.7461 37.9333 50.0685 38.292 50.3047C38.676 50.5253 39.1112 50.6409 39.5541 50.6401C40.1554 50.6353 40.748 50.4961 41.2885 50.2326V50.4165H43.2177V49.7927H43.0987C42.8508 49.8113 42.6015 49.7919 42.3595 49.735ZM39.8642 46.2335C40.1335 46.2078 40.4049 46.2516 40.6524 46.3608C40.9 46.47 41.1153 46.641 41.2777 46.8574V49.3816C40.8493 49.7558 40.3031 49.9677 39.7344 49.9802C39.2866 49.9845 38.8552 49.8122 38.5336 49.5006C38.1719 49.1364 37.9695 48.6436 37.971 48.1303C37.9573 47.7708 38.0515 47.4154 38.2415 47.1098C38.4066 46.83 38.6497 46.6044 38.941 46.4607C39.2295 46.3213 39.544 46.244 39.8642 46.2335Z" fill="#623C21"/>
<path d="M49.0057 49.741C49.0057 49.741 48.9335 49.6942 48.9335 49.4237V45.3562C48.9504 44.8637 48.8253 44.3767 48.5729 43.9534C48.3678 43.6388 48.0778 43.3887 47.7364 43.2322C47.4544 43.0992 47.1466 43.0303 46.8349 43.0303C46.5231 43.0303 46.2153 43.0992 45.9334 43.2322C45.7603 43.3332 45.5259 43.4919 45.2338 43.701V43.564L45.6629 42.8428L45.2122 42.6084L43.3839 44.992L43.8347 45.248L44.1953 44.7792V49.8276H43.5426V50.4514H46.2471V49.8276H46.1569C45.9072 49.8437 45.6579 49.7913 45.4357 49.6761C45.3095 49.604 45.2518 49.4273 45.2518 49.1605V45.6158C45.2244 45.1206 45.3697 44.6311 45.6629 44.2311C45.7697 44.0871 45.9081 43.9696 46.0676 43.8877C46.227 43.8057 46.4032 43.7616 46.5824 43.7587C46.8082 43.7587 47.0276 43.8335 47.2063 43.9715C47.4236 44.1311 47.5952 44.3449 47.7039 44.5917C47.8458 44.914 47.9148 45.2637 47.9058 45.6158V49.8276H47.1017V50.4514H49.8242V49.8276H49.7088C49.4709 49.8496 49.2311 49.8201 49.0057 49.741Z" fill="#623C21"/>
<path d="M54.7853 48.9652C54.6388 49.2646 54.4102 49.5163 54.126 49.6906C53.8418 49.8649 53.5139 49.9547 53.1806 49.9496C52.4594 49.8667 52.1168 49.1166 52.1168 47.7139V43.9204H53.5304V43.1487H52.1168V39.8564H51.7995L51.0783 40.7183V43.1487H50.2922V43.9204H51.0783V48.2476C51.066 48.5726 51.1197 48.8968 51.2362 49.2005C51.3527 49.5042 51.5296 49.7811 51.7562 50.0145C51.9692 50.2337 52.2244 50.4074 52.5064 50.5251C52.7884 50.6429 53.0914 50.7023 53.397 50.6997C53.7768 50.7182 54.1535 50.6227 54.4788 50.4256C54.7208 50.2779 54.9168 50.0656 55.0449 49.8126C55.1536 49.638 55.2203 49.4404 55.2396 49.2356V49.0697L54.8177 48.857L54.7853 48.9652Z" fill="#623C21"/>
<path d="M63.7785 43.2899V43.9137H63.8975C64.1237 43.9002 64.3506 43.9258 64.5682 43.9894C64.6872 44.0579 64.716 44.2707 64.716 44.4402C64.6457 45.1343 64.4869 45.8165 64.2437 46.4703C63.9984 47.2312 63.8037 47.7649 63.6631 48.0786L62.1125 43.9137H62.8337V43.2899H60.1869V42.6336H59.5487V43.2105C59.3017 43.1044 59.0348 43.0528 58.7662 43.0591C58.4886 43.0534 58.2132 43.1089 57.9595 43.2217C57.7059 43.3345 57.4802 43.5018 57.2985 43.7118L57.8502 42.9906L57.4247 42.5723L55.445 44.8152L55.8778 45.2515L56.2744 44.8549V49.8095H55.4883V50.4333H58.1928V49.8095H58.0774C57.5437 49.8095 57.2985 49.5967 57.2985 49.1424V44.7467C57.7024 44.0976 58.1423 43.7731 58.5967 43.7731C58.7165 43.7587 58.838 43.7757 58.9493 43.8225C59.0606 43.8693 59.1578 43.9442 59.2313 44.0399C59.4006 44.2422 59.4938 44.4973 59.4946 44.7611C59.5332 45.1385 59.5513 45.5177 59.5487 45.897V46.016H60.1869V43.9353C60.7819 43.9353 61.1533 44.1805 61.3048 44.6385L63.1078 49.5751C62.8767 50.182 62.6019 50.7713 62.2856 51.3384C61.9474 51.9206 61.5779 52.484 61.1786 53.026C60.7278 53.5922 60.497 53.6751 60.3961 53.6751C60.383 53.6748 60.3702 53.6717 60.3584 53.6661C60.3466 53.6605 60.3361 53.6525 60.3275 53.6426L60.2915 53.6138H59.747V55.0562H59.8768C60.411 54.9768 60.9041 54.7233 61.2795 54.335C61.7483 53.8701 62.15 53.3421 62.4731 52.7664C62.8749 52.0297 63.2302 51.2685 63.5369 50.4874C63.8758 49.6652 64.2581 48.6159 64.6908 47.379L65.8339 43.9245H66.6525V43.3007L63.7785 43.2899Z" fill="#623C21"/>
<path d="M91.6282 48.6808C88.4359 49.7029 85.3599 51.0578 82.4509 52.7232C82.862 51.8541 83.2442 50.9743 83.594 50.0691C86.3057 49.7771 92.0284 48.1688 93.2761 39.8317C93.2761 39.8317 89.699 41.0037 85.0941 45.2696C85.2924 44.4546 85.4547 43.6252 85.6026 42.7887C88.2061 41.797 93.2437 38.7355 92.5549 30.0559C92.5549 30.0559 89.4357 31.8589 86.1651 37.34C86.1651 36.9037 86.1975 36.4674 86.1975 36.0274C86.1975 35.4072 86.1723 34.7978 86.1435 34.1848C88.3539 32.6955 92.5657 28.7037 90.3949 20.7957C88.5552 23.2703 86.9164 25.8882 85.4944 28.6243C85.3249 27.7517 85.1338 26.8971 84.9102 26.0424C86.5437 24.3657 89.7891 19.851 86.1831 12.9816C86.1831 12.9816 84.2106 16.5226 83.6373 22.0218C83.2442 21.0013 82.8187 19.9916 82.3464 19.0108C83.4065 17.0707 85.1266 12.181 80.7237 5.57125C80.0072 8.46588 79.6774 11.4427 79.7428 14.424C79.2091 13.6162 78.6442 12.8301 78.048 12.0656C78.4879 9.76502 79.0793 3.5555 73.6199 0C73.6199 0 72.7292 2.05902 74.3411 7.93317C74.1499 7.74206 73.9408 7.57258 73.7425 7.38146C72.5648 5.48828 70.9527 3.90312 69.04 2.75738C67.1273 1.61164 64.9691 0.938349 62.7442 0.793317C62.7442 0.793317 64.7708 5.76958 73.6199 9.77584C73.6199 9.77584 68.4741 8.23247 65.3874 10.3925C65.3874 10.3925 71.8493 14.7629 77.0167 13.2772C77.6009 14.0453 78.167 14.8314 78.6899 15.6392C76.8003 15.1199 72.8626 14.2328 69.9201 14.835C69.9201 14.835 75.8844 20.4207 81.0987 20.0096C81.5494 20.9724 81.9641 21.9496 82.3283 22.9485C80.3595 21.9424 76.3352 20.1647 73.6235 20.7849C73.6235 20.7849 78.6718 27.2432 83.5291 26.8358C83.8873 28.2824 84.1594 29.749 84.3441 31.2279C84.3441 31.2279 84.3441 31.2639 84.3224 31.2819C84.3008 31.3 80.0529 25.4186 75.2317 26.1362C75.2317 26.1362 78.1165 32.5404 84.6073 34.7906C84.6073 35.2017 84.6434 35.6127 84.6434 36.0274C84.6434 37.0119 84.5929 37.9855 84.5172 38.9519C83.4786 37.1813 80.4352 32.5116 77.1105 32.014C77.1105 32.014 75.9962 36.489 83.9618 43.1096C83.7599 44.1661 83.5147 45.2011 83.2406 46.2252C82.4906 44.5484 80.1287 39.8642 76.6056 38.1838C76.6056 38.1838 75.5995 44.5412 81.9713 49.9574C81.4467 51.2954 80.8447 52.6017 80.1683 53.8699C80.0529 52.4419 79.2488 45.7275 74.644 44.3537C74.644 44.3537 74.0598 52.1246 78.3726 56.8123C77.6599 57.8898 76.892 58.9297 76.0719 59.9279C76.007 58.4675 75.5274 51.4322 72.5849 49.4958C72.5849 49.4958 70.1076 54.2665 73.4287 62.8199C72.3148 63.9188 71.1346 64.9484 69.8949 65.903L69.6028 65.9607C69.6028 65.9607 73.0501 58.4495 68.8059 54.5406C68.8059 54.5406 65.7155 57.0179 67.5366 67.5798C66.4681 68.2791 65.3644 68.923 64.2299 69.509C65.7094 66.0853 66.0063 62.2663 65.0737 58.655C65.0737 58.655 59.744 60.3426 60.5914 71.157C51.605 74.6656 41.6137 74.5856 32.6847 70.9334C33.4455 60.3174 28.188 58.673 28.188 58.673C27.2913 62.142 27.5302 65.8071 28.8695 69.1304C27.8094 68.5498 26.7781 67.9224 25.7864 67.2481C27.4776 56.971 24.4558 54.5514 24.4558 54.5514C20.8174 57.9014 22.8295 63.8945 23.4786 65.5388C22.2536 64.5662 21.0903 63.5185 19.9952 62.4016C23.0711 54.1079 20.6767 49.5066 20.6767 49.5066C18.0624 51.2231 17.3917 56.9494 17.2294 59.2428C16.5082 58.3413 15.8399 57.4061 15.2245 56.4373C19.1658 51.7207 18.6141 44.3645 18.6141 44.3645C14.7016 45.5364 13.5657 50.5884 13.2051 52.9323C12.6537 51.8414 12.1578 50.7234 11.7195 49.5823C17.608 44.2527 16.6452 38.1874 16.6452 38.1874C13.5946 39.6406 11.4093 43.3873 10.3997 45.4355C10.1653 44.5267 9.97777 43.6 9.80829 42.6661C17.2222 36.2835 16.1548 32.0031 16.1548 32.0031C13.27 32.4323 10.6088 35.9914 9.271 38.0901C9.23133 37.4013 9.20969 36.7126 9.20969 36.0166C9.20969 35.5298 9.20969 35.0466 9.23854 34.5742C15.3291 32.1546 18.0299 26.1362 18.0299 26.1362C14.3699 25.6025 11.0019 28.884 9.61717 30.467C9.79747 29.2458 10.0379 28.0438 10.3384 26.861C15.0262 26.7492 19.6598 20.7957 19.6598 20.7957C17.251 20.226 13.8001 21.5746 11.6798 22.5987C12.0091 21.7333 12.3697 20.8799 12.7616 20.0385C17.8316 20.0385 23.3704 14.8422 23.3704 14.8422C20.7561 14.305 17.3664 14.9504 15.311 15.4589C15.769 14.7629 16.2486 14.0742 16.7534 13.4035C21.8343 14.5213 27.8995 10.4177 27.8995 10.4177C25.2023 8.53177 20.94 9.46933 19.9014 9.73617L19.9808 9.65323C28.5594 5.68664 30.5608 0.818559 30.5608 0.818559C28.0941 0.972056 25.7111 1.77107 23.6504 3.13554C21.5898 4.50002 19.9239 6.38204 18.8197 8.59307L18.6718 8.74452C20.619 2.25735 19.6526 0 19.6526 0C13.6234 3.92692 14.9649 11.0956 15.3507 12.6534C14.6968 13.5357 14.0814 14.4456 13.5044 15.3831C13.6665 12.0793 13.3482 8.76932 12.5597 5.55683C7.65191 12.9311 10.36 18.1778 11.2651 19.5445C10.6992 20.7779 10.1962 22.0392 9.7578 23.3235C9.3936 17.0816 7.10019 12.9816 7.10019 12.9816C3.09754 20.6299 7.55094 25.3537 8.83107 26.4932C8.58586 27.4848 8.37311 28.4909 8.20723 29.5078C6.21312 25.1806 2.88479 20.7849 2.88479 20.7849C0.508444 29.4393 5.76958 33.4059 7.70239 34.5309C7.68076 35.025 7.66633 35.519 7.66633 36.0166C7.66633 36.8316 7.70239 37.6429 7.75287 38.4507C4.26228 32.0717 0.721198 30.0451 0.721198 30.0451C-0.0324539 39.482 5.99315 42.2766 8.29377 42.9942C8.47407 44.0111 8.70125 45.0136 8.96449 46.0052C3.98462 41.1263 0 39.8209 0 39.8209C1.34864 48.8359 7.93317 49.9898 10.2843 50.1052C10.6906 51.1582 11.1389 52.1871 11.6293 53.1919C8.48571 51.3114 5.13667 49.7978 1.64794 48.6808C3.68532 57.7283 11.7447 57.5227 13.948 57.2955C14.4913 58.1321 15.0658 58.9471 15.6716 59.7404C10.58 58.298 4.63009 57.9374 4.63009 57.9374C9.28542 65.6903 16.6741 64.2118 18.9567 63.5231C19.6562 64.2443 20.3774 64.9186 21.1203 65.5749C15.8267 65.0556 9.76862 65.9607 9.76862 65.9607C15.7798 73.1078 22.9701 69.7759 25.0328 68.5859C26.3731 69.4881 27.7676 70.307 29.2085 71.038C20.6731 70.0607 16.1584 73.4756 16.1584 73.4756C24.3657 78.9134 30.3877 74.067 32.1185 72.365C34.9383 73.5209 37.8842 74.3415 40.8955 74.8098C40.9929 74.9433 40.964 75.0731 40.7008 75.1704C40.4844 75.2209 40.2717 75.2642 40.0661 75.3183H40.0265C38.3066 75.6444 36.6576 76.2705 35.1548 77.1682V79.8149C46.3333 73.252 56.7907 79.5156 56.7907 79.5156V77.0491C55.3192 76.3366 53.7818 75.769 52.2003 75.3543C52.2003 75.3543 51.5079 75.1344 51.4466 74.9937C54.8393 74.6014 58.1659 73.7661 61.3415 72.5092C63.2635 74.3122 69.1773 78.7368 77.1357 73.4612C77.1357 73.4612 72.877 70.2158 64.8032 70.937C66.0961 70.275 67.3505 69.5407 68.5607 68.7374C70.9622 70.0319 77.7812 72.7616 83.5183 65.9391C83.5183 65.9391 77.9362 65.1025 72.8049 65.4992C73.4936 64.897 74.1572 64.2767 74.799 63.6313C77.4927 64.3308 84.2864 65.2071 88.6604 57.9158C85.1918 58.1618 81.7495 58.6949 78.3689 59.5096C78.9026 58.7884 79.4075 58.0672 79.8943 57.3136C82.6565 57.4795 89.753 57.0539 91.6462 48.6592" fill="#623C21"/>
</svg>
